<svg xmlns="http://www.w3.org/2000/svg" xmlns:xlink="http://www.w3.org/1999/xlink" version="1.1" class="marks" width="563" height="401" viewBox="0 0 563 401"><rect width="563" height="401" fill="white"/><g fill="none" stroke-miterlimit="10" transform="translate(58,25)"><g class="mark-group role-frame root" role="graphics-object" aria-roledescription="group mark container"><g transform="translate(0,0)"><path class="background" aria-hidden="true" d="M0,0h500v350h-500Z"/><g><g class="mark-group role-axis" aria-hidden="true"><g transform="translate(0.5,350.5)"><path class="background" aria-hidden="true" d="M0,0h0v0h0Z" pointer-events="none"/><g><g class="mark-rule role-axis-grid" pointer-events="none"><line transform="translate(83,-350)" x2="0" y2="350" stroke="#ddd" stroke-width="1" opacity="1"/><line transform="translate(250,-350)" x2="0" y2="350" stroke="#ddd" stroke-width="1" opacity="1"/><line transform="translate(416,-350)" x2="0" y2="350" stroke="#ddd" stroke-width="1" opacity="1"/></g></g><path class="foreground" aria-hidden="true" d="" pointer-events="none" display="none"/></g></g><g class="mark-group role-axis" aria-hidden="true"><g transform="translate(0.5,0.5)"><path class="background" aria-hidden="true" d="M0,0h0v0h0Z" pointer-events="none"/><g><g class="mark-rule role-axis-grid" pointer-events="none"><line transform="translate(0,350)" x2="500" y2="0" stroke="#ddd" stroke-width="1" opacity="1"/><line transform="translate(0,320)" x2="500" y2="0" stroke="#ddd" stroke-width="1" opacity="1"/><line transform="translate(0,290)" x2="500" y2="0" stroke="#ddd" stroke-width="1" opacity="1"/><line transform="translate(0,261)" x2="500" y2="0" stroke="#ddd" stroke-width="1" opacity="1"/><line transform="translate(0,231)" x2="500" y2="0" stroke="#ddd" stroke-width="1" opacity="1"/><line transform="translate(0,201)" x2="500" y2="0" stroke="#ddd" stroke-width="1" opacity="1"/><line transform="translate(0,171)" x2="500" y2="0" stroke="#ddd" stroke-width="1" opacity="1"/><line transform="translate(0,141)" x2="500" y2="0" stroke="#ddd" stroke-width="1" opacity="1"/><line transform="translate(0,112)" x2="500" y2="0" stroke="#ddd" stroke-width="1" opacity="1"/><line transform="translate(0,82)" x2="500" y2="0" stroke="#ddd" stroke-width="1" opacity="1"/><line transform="translate(0,52)" x2="500" y2="0" stroke="#ddd" stroke-width="1" opacity="1"/><line transform="translate(0,22)" x2="500" y2="0" stroke="#ddd" stroke-width="1" opacity="1"/></g></g><path class="foreground" aria-hidden="true" d="" pointer-events="none" display="none"/></g></g><g class="mark-group role-axis" role="graphics-symbol" aria-roledescription="axis" aria-label="X-axis for a discrete scale with 3 values: Cost, Profit, Sales"><g transform="translate(0.5,350.5)"><path class="background" aria-hidden="true" d="M0,0h0v0h0Z" pointer-events="none"/><g><g class="mark-rule role-axis-tick" pointer-events="none"><line transform="translate(83,0)" x2="0" y2="5" stroke="#888" stroke-width="1" opacity="1"/><line transform="translate(250,0)" x2="0" y2="5" stroke="#888" stroke-width="1" opacity="1"/><line transform="translate(416,0)" x2="0" y2="5" stroke="#888" stroke-width="1" opacity="1"/></g><g class="mark-text role-axis-label" pointer-events="none"><text text-anchor="middle" transform="translate(82.83333333333334,18)" font-family="sans-serif" font-size="14px" fill="#000" opacity="1">Cost</text><text text-anchor="middle" transform="translate(249.5,18)" font-family="sans-serif" font-size="14px" fill="#000" opacity="1">Profit</text><text text-anchor="middle" transform="translate(416.16666666666663,18)" font-family="sans-serif" font-size="14px" fill="#000" opacity="1">Sales</text></g><g class="mark-rule role-axis-domain" pointer-events="none"><line transform="translate(0,0)" x2="500" y2="0" stroke="#888" stroke-width="1" opacity="1"/></g></g><path class="foreground" aria-hidden="true" d="" pointer-events="none" display="none"/></g></g><g class="mark-group role-axis" role="graphics-symbol" aria-roledescription="axis" aria-label="Y-axis titled 'Amount ($)' for a linear scale with values from 0 to 1,175"><g transform="translate(0.5,0.5)"><path class="background" aria-hidden="true" d="M0,0h0v0h0Z" pointer-events="none"/><g><g class="mark-rule role-axis-tick" pointer-events="none"><line transform="translate(0,350)" x2="-5" y2="0" stroke="#888" stroke-width="1" opacity="1"/><line transform="translate(0,320)" x2="-5" y2="0" stroke="#888" stroke-width="1" opacity="1"/><line transform="translate(0,290)" x2="-5" y2="0" stroke="#888" stroke-width="1" opacity="1"/><line transform="translate(0,261)" x2="-5" y2="0" stroke="#888" stroke-width="1" opacity="1"/><line transform="translate(0,231)" x2="-5" y2="0" stroke="#888" stroke-width="1" opacity="1"/><line transform="translate(0,201)" x2="-5" y2="0" stroke="#888" stroke-width="1" opacity="1"/><line transform="translate(0,171)" x2="-5" y2="0" stroke="#888" stroke-width="1" opacity="1"/><line transform="translate(0,141)" x2="-5" y2="0" stroke="#888" stroke-width="1" opacity="1"/><line transform="translate(0,112)" x2="-5" y2="0" stroke="#888" stroke-width="1" opacity="1"/><line transform="translate(0,82)" x2="-5" y2="0" stroke="#888" stroke-width="1" opacity="1"/><line transform="translate(0,52)" x2="-5" y2="0" stroke="#888" stroke-width="1" opacity="1"/><line transform="translate(0,22)" x2="-5" y2="0" stroke="#888" stroke-width="1" opacity="1"/></g><g class="mark-text role-axis-label" pointer-events="none"><text text-anchor="end" transform="translate(-7,354)" font-family="sans-serif" font-size="12px" fill="#000" opacity="1">0</text><text text-anchor="end" transform="translate(-7,324.2076949267961)" font-family="sans-serif" font-size="12px" fill="#000" opacity="1">100</text><text text-anchor="end" transform="translate(-7,294.41538985359216)" font-family="sans-serif" font-size="12px" fill="#000" opacity="1">200</text><text text-anchor="end" transform="translate(-7,264.6230847803882)" font-family="sans-serif" font-size="12px" fill="#000" opacity="1">300</text><text text-anchor="end" transform="translate(-7,234.83077970718423)" font-family="sans-serif" font-size="12px" fill="#000" opacity="1">400</text><text text-anchor="end" transform="translate(-7,205.0384746339803)" font-family="sans-serif" font-size="12px" fill="#000" opacity="1">500</text><text text-anchor="end" transform="translate(-7,175.2461695607763)" font-family="sans-serif" font-size="12px" fill="#000" opacity="1">600</text><text text-anchor="end" transform="translate(-7,145.4538644875724)" font-family="sans-serif" font-size="12px" fill="#000" opacity="1">700</text><text text-anchor="end" transform="translate(-7,115.66155941436845)" font-family="sans-serif" font-size="12px" fill="#000" opacity="1">800</text><text text-anchor="end" transform="translate(-7,85.86925434116448)" font-family="sans-serif" font-size="12px" fill="#000" opacity="1">900</text><text text-anchor="end" transform="translate(-7,56.07694926796054)" font-family="sans-serif" font-size="12px" fill="#000" opacity="1">1,000</text><text text-anchor="end" transform="translate(-7,26.28464419475661)" font-family="sans-serif" font-size="12px" fill="#000" opacity="1">1,100</text></g><g class="mark-rule role-axis-domain" pointer-events="none"><line transform="translate(0,350)" x2="0" y2="-350" stroke="#888" stroke-width="1" opacity="1"/></g><g class="mark-text role-axis-title" pointer-events="none"><text text-anchor="middle" transform="translate(-41.029296875,175) rotate(-90) translate(0,-2)" font-family="sans-serif" font-size="11px" font-weight="bold" fill="#000" opacity="1">Amount ($)</text></g></g><path class="foreground" aria-hidden="true" d="" pointer-events="none" display="none"/></g></g><g class="mark-rect role-mark marks" role="graphics-object" aria-roledescription="rect mark container"><path aria-label="Metric: Cost; Amount: 743; Color: #e74c3c" role="graphics-symbol" aria-roledescription="bar" d="M8.333333333333343,128.6431733060947h150v221.3568266939053h-150Z" fill="#e74c3c"/><path aria-label="Metric: Profit; Amount: 325; Color: #27ae60" role="graphics-symbol" aria-roledescription="bar" d="M175,253.17500851208717h150v96.82499148791283h-150Z" fill="#27ae60"/><path aria-label="Metric: Sales; Amount: 1,068; Color: #3498db" role="graphics-symbol" aria-roledescription="bar" d="M341.66666666666663,31.818181818181866h150v318.18181818181813h-150Z" fill="#3498db"/></g><g class="mark-group role-title"><g transform="translate(250,-20)"><path class="background" aria-hidden="true" d="M0,0h0v0h0Z" pointer-events="none"/><g><g class="mark-text role-title-text" role="graphics-symbol" aria-roledescription="title" aria-label="Title text 'Month 6 - Gadget / North / Enterprise'" pointer-events="none"><text text-anchor="middle" transform="translate(0,13)" font-family="sans-serif" font-size="16px" font-weight="bold" fill="#000" opacity="1">Month 6 - Gadget / North / Enterprise</text></g></g><path class="foreground" aria-hidden="true" d="" pointer-events="none" display="none"/></g></g></g><path class="foreground" aria-hidden="true" d="" display="none"/></g></g></g></svg>