<svg xmlns="http://www.w3.org/2000/svg" xmlns:xlink="http://www.w3.org/1999/xlink" version="1.1" class="marks" width="576" height="401" viewBox="0 0 576 401"><rect width="576" height="401" fill="white"/><g fill="none" stroke-miterlimit="10" transform="translate(71,25)"><g class="mark-group role-frame root" role="graphics-object" aria-roledescription="group mark container"><g transform="translate(0,0)"><path class="background" aria-hidden="true" d="M0,0h500v350h-500Z"/><g><g class="mark-group role-axis" aria-hidden="true"><g transform="translate(0.5,350.5)"><path class="background" aria-hidden="true" d="M0,0h0v0h0Z" pointer-events="none"/><g><g class="mark-rule role-axis-grid" pointer-events="none"><line transform="translate(83,-350)" x2="0" y2="350" stroke="#ddd" stroke-width="1" opacity="1"/><line transform="translate(250,-350)" x2="0" y2="350" stroke="#ddd" stroke-width="1" opacity="1"/><line transform="translate(416,-350)" x2="0" y2="350" stroke="#ddd" stroke-width="1" opacity="1"/></g></g><path class="foreground" aria-hidden="true" d="" pointer-events="none" display="none"/></g></g><g class="mark-group role-axis" aria-hidden="true"><g transform="translate(0.5,0.5)"><path class="background" aria-hidden="true" d="M0,0h0v0h0Z" pointer-events="none"/><g><g class="mark-rule role-axis-grid" pointer-events="none"><line transform="translate(0,350)" x2="500" y2="0" stroke="#ddd" stroke-width="1" opacity="1"/><line transform="translate(0,322)" x2="500" y2="0" stroke="#ddd" stroke-width="1" opacity="1"/><line transform="translate(0,295)" x2="500" y2="0" stroke="#ddd" stroke-width="1" opacity="1"/><line transform="translate(0,267)" x2="500" y2="0" stroke="#ddd" stroke-width="1" opacity="1"/><line transform="translate(0,239)" x2="500" y2="0" stroke="#ddd" stroke-width="1" opacity="1"/><line transform="translate(0,211)" x2="500" y2="0" stroke="#ddd" stroke-width="1" opacity="1"/><line transform="translate(0,184)" x2="500" y2="0" stroke="#ddd" stroke-width="1" opacity="1"/><line transform="translate(0,156)" x2="500" y2="0" stroke="#ddd" stroke-width="1" opacity="1"/><line transform="translate(0,128)" x2="500" y2="0" stroke="#ddd" stroke-width="1" opacity="1"/><line transform="translate(0,101)" x2="500" y2="0" stroke="#ddd" stroke-width="1" opacity="1"/><line transform="translate(0,73)" x2="500" y2="0" stroke="#ddd" stroke-width="1" opacity="1"/><line transform="translate(0,45)" x2="500" y2="0" stroke="#ddd" stroke-width="1" opacity="1"/><line transform="translate(0,17)" x2="500" y2="0" stroke="#ddd" stroke-width="1" opacity="1"/></g></g><path class="foreground" aria-hidden="true" d="" pointer-events="none" display="none"/></g></g><g class="mark-group role-axis" role="graphics-symbol" aria-roledescription="axis" aria-label="X-axis for a discrete scale with 3 values: Cost, Profit, Sales"><g transform="translate(0.5,350.5)"><path class="background" aria-hidden="true" d="M0,0h0v0h0Z" pointer-events="none"/><g><g class="mark-rule role-axis-tick" pointer-events="none"><line transform="translate(83,0)" x2="0" y2="5" stroke="#888" stroke-width="1" opacity="1"/><line transform="translate(250,0)" x2="0" y2="5" stroke="#888" stroke-width="1" opacity="1"/><line transform="translate(416,0)" x2="0" y2="5" stroke="#888" stroke-width="1" opacity="1"/></g><g class="mark-text role-axis-label" pointer-events="none"><text text-anchor="middle" transform="translate(82.83333333333334,18)" font-family="sans-serif" font-size="14px" fill="#000" opacity="1">Cost</text><text text-anchor="middle" transform="translate(249.5,18)" font-family="sans-serif" font-size="14px" fill="#000" opacity="1">Profit</text><text text-anchor="middle" transform="translate(416.16666666666663,18)" font-family="sans-serif" font-size="14px" fill="#000" opacity="1">Sales</text></g><g class="mark-rule role-axis-domain" pointer-events="none"><line transform="translate(0,0)" x2="500" y2="0" stroke="#888" stroke-width="1" opacity="1"/></g></g><path class="foreground" aria-hidden="true" d="" pointer-events="none" display="none"/></g></g><g class="mark-group role-axis" role="graphics-symbol" aria-roledescription="axis" aria-label="Y-axis titled 'Amount ($)' for a linear scale with values from 0 to 631,343"><g transform="translate(0.5,0.5)"><path class="background" aria-hidden="true" d="M0,0h0v0h0Z" pointer-events="none"/><g><g class="mark-rule role-axis-tick" pointer-events="none"><line transform="translate(0,350)" x2="-5" y2="0" stroke="#888" stroke-width="1" opacity="1"/><line transform="translate(0,322)" x2="-5" y2="0" stroke="#888" stroke-width="1" opacity="1"/><line transform="translate(0,295)" x2="-5" y2="0" stroke="#888" stroke-width="1" opacity="1"/><line transform="translate(0,267)" x2="-5" y2="0" stroke="#888" stroke-width="1" opacity="1"/><line transform="translate(0,239)" x2="-5" y2="0" stroke="#888" stroke-width="1" opacity="1"/><line transform="translate(0,211)" x2="-5" y2="0" stroke="#888" stroke-width="1" opacity="1"/><line transform="translate(0,184)" x2="-5" y2="0" stroke="#888" stroke-width="1" opacity="1"/><line transform="translate(0,156)" x2="-5" y2="0" stroke="#888" stroke-width="1" opacity="1"/><line transform="translate(0,128)" x2="-5" y2="0" stroke="#888" stroke-width="1" opacity="1"/><line transform="translate(0,101)" x2="-5" y2="0" stroke="#888" stroke-width="1" opacity="1"/><line transform="translate(0,73)" x2="-5" y2="0" stroke="#888" stroke-width="1" opacity="1"/><line transform="translate(0,45)" x2="-5" y2="0" stroke="#888" stroke-width="1" opacity="1"/><line transform="translate(0,17)" x2="-5" y2="0" stroke="#888" stroke-width="1" opacity="1"/></g><g class="mark-text role-axis-label" pointer-events="none"><text text-anchor="end" transform="translate(-7,354)" font-family="sans-serif" font-size="12px" fill="#000" opacity="1">0</text><text text-anchor="end" transform="translate(-7,326.28128956565473)" font-family="sans-serif" font-size="12px" fill="#000" opacity="1">50,000</text><text text-anchor="end" transform="translate(-7,298.5625791313094)" font-family="sans-serif" font-size="12px" fill="#000" opacity="1">100,000</text><text text-anchor="end" transform="translate(-7,270.84386869696414)" font-family="sans-serif" font-size="12px" fill="#000" opacity="1">150,000</text><text text-anchor="end" transform="translate(-7,243.12515826261884)" font-family="sans-serif" font-size="12px" fill="#000" opacity="1">200,000</text><text text-anchor="end" transform="translate(-7,215.4064478282735)" font-family="sans-serif" font-size="12px" fill="#000" opacity="1">250,000</text><text text-anchor="end" transform="translate(-7,187.68773739392822)" font-family="sans-serif" font-size="12px" fill="#000" opacity="1">300,000</text><text text-anchor="end" transform="translate(-7,159.96902695958295)" font-family="sans-serif" font-size="12px" fill="#000" opacity="1">350,000</text><text text-anchor="end" transform="translate(-7,132.25031652523765)" font-family="sans-serif" font-size="12px" fill="#000" opacity="1">400,000</text><text text-anchor="end" transform="translate(-7,104.53160609089237)" font-family="sans-serif" font-size="12px" fill="#000" opacity="1">450,000</text><text text-anchor="end" transform="translate(-7,76.81289565654704)" font-family="sans-serif" font-size="12px" fill="#000" opacity="1">500,000</text><text text-anchor="end" transform="translate(-7,49.09418522220176)" font-family="sans-serif" font-size="12px" fill="#000" opacity="1">550,000</text><text text-anchor="end" transform="translate(-7,21.375474787856476)" font-family="sans-serif" font-size="12px" fill="#000" opacity="1">600,000</text></g><g class="mark-rule role-axis-domain" pointer-events="none"><line transform="translate(0,350)" x2="0" y2="-350" stroke="#888" stroke-width="1" opacity="1"/></g><g class="mark-text role-axis-title" pointer-events="none"><text text-anchor="middle" transform="translate(-54.376953125,175) rotate(-90) translate(0,-2)" font-family="sans-serif" font-size="11px" font-weight="bold" fill="#000" opacity="1">Amount ($)</text></g></g><path class="foreground" aria-hidden="true" d="" pointer-events="none" display="none"/></g></g><g class="mark-rect role-mark marks" role="graphics-object" aria-roledescription="rect mark container"><path aria-label="Metric: Cost; Amount: 343,409; Color: #e74c3c" role="graphics-symbol" aria-roledescription="bar" d="M8.333333333333343,159.6226651154419h150v190.3773348845581h-150Z" fill="#e74c3c"/><path aria-label="Metric: Profit; Amount: 230,538; Color: #27ae60" role="graphics-symbol" aria-roledescription="bar" d="M175,222.19551670273995h150v127.80448329726005h-150Z" fill="#27ae60"/><path aria-label="Metric: Sales; Amount: 573,948; Color: #3498db" role="graphics-symbol" aria-roledescription="bar" d="M341.66666666666663,31.818181818181866h150v318.18181818181813h-150Z" fill="#3498db"/></g><g class="mark-group role-title"><g transform="translate(250,-20)"><path class="background" aria-hidden="true" d="M0,0h0v0h0Z" pointer-events="none"/><g><g class="mark-text role-title-text" role="graphics-symbol" aria-roledescription="title" aria-label="Title text 'Month 4 - Tablet / South / Enterprise'" pointer-events="none"><text text-anchor="middle" transform="translate(0,13)" font-family="sans-serif" font-size="16px" font-weight="bold" fill="#000" opacity="1">Month 4 - Tablet / South / Enterprise</text></g></g><path class="foreground" aria-hidden="true" d="" pointer-events="none" display="none"/></g></g></g><path class="foreground" aria-hidden="true" d="" display="none"/></g></g></g></svg>