<svg xmlns="http://www.w3.org/2000/svg" xmlns:xlink="http://www.w3.org/1999/xlink" version="1.1" class="marks" width="576" height="401" viewBox="0 0 576 401"><rect width="576" height="401" fill="white"/><g fill="none" stroke-miterlimit="10" transform="translate(71,25)"><g class="mark-group role-frame root" role="graphics-object" aria-roledescription="group mark container"><g transform="translate(0,0)"><path class="background" aria-hidden="true" d="M0,0h500v350h-500Z"/><g><g class="mark-group role-axis" aria-hidden="true"><g transform="translate(0.5,350.5)"><path class="background" aria-hidden="true" d="M0,0h0v0h0Z" pointer-events="none"/><g><g class="mark-rule role-axis-grid" pointer-events="none"><line transform="translate(83,-350)" x2="0" y2="350" stroke="#ddd" stroke-width="1" opacity="1"/><line transform="translate(250,-350)" x2="0" y2="350" stroke="#ddd" stroke-width="1" opacity="1"/><line transform="translate(416,-350)" x2="0" y2="350" stroke="#ddd" stroke-width="1" opacity="1"/></g></g><path class="foreground" aria-hidden="true" d="" pointer-events="none" display="none"/></g></g><g class="mark-group role-axis" aria-hidden="true"><g transform="translate(0.5,0.5)"><path class="background" aria-hidden="true" d="M0,0h0v0h0Z" pointer-events="none"/><g><g class="mark-rule role-axis-grid" pointer-events="none"><line transform="translate(0,350)" x2="500" y2="0" stroke="#ddd" stroke-width="1" opacity="1"/><line transform="translate(0,322)" x2="500" y2="0" stroke="#ddd" stroke-width="1" opacity="1"/><line transform="translate(0,294)" x2="500" y2="0" stroke="#ddd" stroke-width="1" opacity="1"/><line transform="translate(0,266)" x2="500" y2="0" stroke="#ddd" stroke-width="1" opacity="1"/><line transform="translate(0,238)" x2="500" y2="0" stroke="#ddd" stroke-width="1" opacity="1"/><line transform="translate(0,210)" x2="500" y2="0" stroke="#ddd" stroke-width="1" opacity="1"/><line transform="translate(0,182)" x2="500" y2="0" stroke="#ddd" stroke-width="1" opacity="1"/><line transform="translate(0,154)" x2="500" y2="0" stroke="#ddd" stroke-width="1" opacity="1"/><line transform="translate(0,126)" x2="500" y2="0" stroke="#ddd" stroke-width="1" opacity="1"/><line transform="translate(0,98)" x2="500" y2="0" stroke="#ddd" stroke-width="1" opacity="1"/><line transform="translate(0,70)" x2="500" y2="0" stroke="#ddd" stroke-width="1" opacity="1"/><line transform="translate(0,42)" x2="500" y2="0" stroke="#ddd" stroke-width="1" opacity="1"/><line transform="translate(0,14)" x2="500" y2="0" stroke="#ddd" stroke-width="1" opacity="1"/></g></g><path class="foreground" aria-hidden="true" d="" pointer-events="none" display="none"/></g></g><g class="mark-group role-axis" role="graphics-symbol" aria-roledescription="axis" aria-label="X-axis for a discrete scale with 3 values: Cost, Profit, Sales"><g transform="translate(0.5,350.5)"><path class="background" aria-hidden="true" d="M0,0h0v0h0Z" pointer-events="none"/><g><g class="mark-rule role-axis-tick" pointer-events="none"><line transform="translate(83,0)" x2="0" y2="5" stroke="#888" stroke-width="1" opacity="1"/><line transform="translate(250,0)" x2="0" y2="5" stroke="#888" stroke-width="1" opacity="1"/><line transform="translate(416,0)" x2="0" y2="5" stroke="#888" stroke-width="1" opacity="1"/></g><g class="mark-text role-axis-label" pointer-events="none"><text text-anchor="middle" transform="translate(82.83333333333334,18)" font-family="sans-serif" font-size="14px" fill="#000" opacity="1">Cost</text><text text-anchor="middle" transform="translate(249.5,18)" font-family="sans-serif" font-size="14px" fill="#000" opacity="1">Profit</text><text text-anchor="middle" transform="translate(416.16666666666663,18)" font-family="sans-serif" font-size="14px" fill="#000" opacity="1">Sales</text></g><g class="mark-rule role-axis-domain" pointer-events="none"><line transform="translate(0,0)" x2="500" y2="0" stroke="#888" stroke-width="1" opacity="1"/></g></g><path class="foreground" aria-hidden="true" d="" pointer-events="none" display="none"/></g></g><g class="mark-group role-axis" role="graphics-symbol" aria-roledescription="axis" aria-label="Y-axis titled 'Amount ($)' for a linear scale with values from 0 to 624,853"><g transform="translate(0.5,0.5)"><path class="background" aria-hidden="true" d="M0,0h0v0h0Z" pointer-events="none"/><g><g class="mark-rule role-axis-tick" pointer-events="none"><line transform="translate(0,350)" x2="-5" y2="0" stroke="#888" stroke-width="1" opacity="1"/><line transform="translate(0,322)" x2="-5" y2="0" stroke="#888" stroke-width="1" opacity="1"/><line transform="translate(0,294)" x2="-5" y2="0" stroke="#888" stroke-width="1" opacity="1"/><line transform="translate(0,266)" x2="-5" y2="0" stroke="#888" stroke-width="1" opacity="1"/><line transform="translate(0,238)" x2="-5" y2="0" stroke="#888" stroke-width="1" opacity="1"/><line transform="translate(0,210)" x2="-5" y2="0" stroke="#888" stroke-width="1" opacity="1"/><line transform="translate(0,182)" x2="-5" y2="0" stroke="#888" stroke-width="1" opacity="1"/><line transform="translate(0,154)" x2="-5" y2="0" stroke="#888" stroke-width="1" opacity="1"/><line transform="translate(0,126)" x2="-5" y2="0" stroke="#888" stroke-width="1" opacity="1"/><line transform="translate(0,98)" x2="-5" y2="0" stroke="#888" stroke-width="1" opacity="1"/><line transform="translate(0,70)" x2="-5" y2="0" stroke="#888" stroke-width="1" opacity="1"/><line transform="translate(0,42)" x2="-5" y2="0" stroke="#888" stroke-width="1" opacity="1"/><line transform="translate(0,14)" x2="-5" y2="0" stroke="#888" stroke-width="1" opacity="1"/></g><g class="mark-text role-axis-label" pointer-events="none"><text text-anchor="end" transform="translate(-7,354)" font-family="sans-serif" font-size="12px" fill="#000" opacity="1">0</text><text text-anchor="end" transform="translate(-7,325.9934055550436)" font-family="sans-serif" font-size="12px" fill="#000" opacity="1">50,000</text><text text-anchor="end" transform="translate(-7,297.98681111008716)" font-family="sans-serif" font-size="12px" fill="#000" opacity="1">100,000</text><text text-anchor="end" transform="translate(-7,269.9802166651307)" font-family="sans-serif" font-size="12px" fill="#000" opacity="1">150,000</text><text text-anchor="end" transform="translate(-7,241.97362222017426)" font-family="sans-serif" font-size="12px" fill="#000" opacity="1">200,000</text><text text-anchor="end" transform="translate(-7,213.96702777521784)" font-family="sans-serif" font-size="12px" fill="#000" opacity="1">250,000</text><text text-anchor="end" transform="translate(-7,185.9604333302614)" font-family="sans-serif" font-size="12px" fill="#000" opacity="1">300,000</text><text text-anchor="end" transform="translate(-7,157.95383888530495)" font-family="sans-serif" font-size="12px" fill="#000" opacity="1">350,000</text><text text-anchor="end" transform="translate(-7,129.94724444034858)" font-family="sans-serif" font-size="12px" fill="#000" opacity="1">400,000</text><text text-anchor="end" transform="translate(-7,101.94064999539214)" font-family="sans-serif" font-size="12px" fill="#000" opacity="1">450,000</text><text text-anchor="end" transform="translate(-7,73.9340555504357)" font-family="sans-serif" font-size="12px" fill="#000" opacity="1">500,000</text><text text-anchor="end" transform="translate(-7,45.92746110547926)" font-family="sans-serif" font-size="12px" fill="#000" opacity="1">550,000</text><text text-anchor="end" transform="translate(-7,17.92086666052283)" font-family="sans-serif" font-size="12px" fill="#000" opacity="1">600,000</text></g><g class="mark-rule role-axis-domain" pointer-events="none"><line transform="translate(0,350)" x2="0" y2="-350" stroke="#888" stroke-width="1" opacity="1"/></g><g class="mark-text role-axis-title" pointer-events="none"><text text-anchor="middle" transform="translate(-54.376953125,175) rotate(-90) translate(0,-2)" font-family="sans-serif" font-size="11px" font-weight="bold" fill="#000" opacity="1">Amount ($)</text></g></g><path class="foreground" aria-hidden="true" d="" pointer-events="none" display="none"/></g></g><g class="mark-rect role-mark marks" role="graphics-object" aria-roledescription="rect mark container"><path aria-label="Metric: Cost; Amount: 349,378; Color: #e74c3c" role="graphics-symbol" aria-roledescription="bar" d="M8.333333333333343,154.30239666788293h150v195.69760333211707h-150Z" fill="#e74c3c"/><path aria-label="Metric: Profit; Amount: 218,670; Color: #27ae60" role="graphics-symbol" aria-roledescription="bar" d="M175,227.51578515029897h150v122.48421484970103h-150Z" fill="#27ae60"/><path aria-label="Metric: Sales; Amount: 568,048; Color: #3498db" role="graphics-symbol" aria-roledescription="bar" d="M341.66666666666663,31.818181818181827h150v318.1818181818182h-150Z" fill="#3498db"/></g><g class="mark-group role-title"><g transform="translate(250,-20)"><path class="background" aria-hidden="true" d="M0,0h0v0h0Z" pointer-events="none"/><g><g class="mark-text role-title-text" role="graphics-symbol" aria-roledescription="title" aria-label="Title text 'Month 5 - Tablet / South / SMB'" pointer-events="none"><text text-anchor="middle" transform="translate(0,13)" font-family="sans-serif" font-size="16px" font-weight="bold" fill="#000" opacity="1">Month 5 - Tablet / South / SMB</text></g></g><path class="foreground" aria-hidden="true" d="" pointer-events="none" display="none"/></g></g></g><path class="foreground" aria-hidden="true" d="" display="none"/></g></g></g></svg>